<mxfile host="app.diagrams.net" agent="Mozilla/5.0 (Windows NT 10.0; Win64; x64) AppleWebKit/537.36 (KHTML, like Gecko) Chrome/128.0.0.0 Safari/537.36 OPR/114.0.0.0" version="25.0.0">
  <diagram name="Page-1" id="nhiR81LXqLllLZ72gkEw">
    <mxGraphModel dx="2033" dy="1123" grid="1" gridSize="10" guides="1" tooltips="1" connect="1" arrows="1" fold="1" page="1" pageScale="1" pageWidth="827" pageHeight="1169" math="0" shadow="0">
      <root>
        <mxCell id="0" />
        <mxCell id="1" parent="0" />
        <mxCell id="rDRPrBqrG4_wmn54cMDA-8" value="" style="edgeStyle=orthogonalEdgeStyle;rounded=0;orthogonalLoop=1;jettySize=auto;html=1;" edge="1" parent="1" source="rDRPrBqrG4_wmn54cMDA-1" target="rDRPrBqrG4_wmn54cMDA-7">
          <mxGeometry relative="1" as="geometry" />
        </mxCell>
        <mxCell id="rDRPrBqrG4_wmn54cMDA-1" value="Chcemy założyc armour" style="rounded=0;whiteSpace=wrap;html=1;" vertex="1" parent="1">
          <mxGeometry x="30" y="20" width="120" height="60" as="geometry" />
        </mxCell>
        <mxCell id="rDRPrBqrG4_wmn54cMDA-3" style="edgeStyle=orthogonalEdgeStyle;rounded=0;orthogonalLoop=1;jettySize=auto;html=1;entryX=0.5;entryY=0;entryDx=0;entryDy=0;" edge="1" parent="1" source="rDRPrBqrG4_wmn54cMDA-2" target="rDRPrBqrG4_wmn54cMDA-18">
          <mxGeometry relative="1" as="geometry">
            <mxPoint x="670" y="370" as="targetPoint" />
            <Array as="points">
              <mxPoint x="640" y="235" />
            </Array>
          </mxGeometry>
        </mxCell>
        <mxCell id="rDRPrBqrG4_wmn54cMDA-4" value="TAK" style="edgeLabel;html=1;align=center;verticalAlign=middle;resizable=0;points=[];" vertex="1" connectable="0" parent="rDRPrBqrG4_wmn54cMDA-3">
          <mxGeometry x="-0.5501" y="2" relative="1" as="geometry">
            <mxPoint as="offset" />
          </mxGeometry>
        </mxCell>
        <mxCell id="rDRPrBqrG4_wmn54cMDA-5" style="edgeStyle=orthogonalEdgeStyle;rounded=0;orthogonalLoop=1;jettySize=auto;html=1;entryX=0.5;entryY=0;entryDx=0;entryDy=0;" edge="1" parent="1" source="rDRPrBqrG4_wmn54cMDA-2" target="rDRPrBqrG4_wmn54cMDA-29">
          <mxGeometry relative="1" as="geometry">
            <mxPoint x="195" y="310" as="targetPoint" />
            <Array as="points">
              <mxPoint x="200" y="235" />
            </Array>
          </mxGeometry>
        </mxCell>
        <mxCell id="rDRPrBqrG4_wmn54cMDA-6" value="NIE" style="edgeLabel;html=1;align=center;verticalAlign=middle;resizable=0;points=[];" vertex="1" connectable="0" parent="rDRPrBqrG4_wmn54cMDA-5">
          <mxGeometry x="-0.3688" y="1" relative="1" as="geometry">
            <mxPoint as="offset" />
          </mxGeometry>
        </mxCell>
        <mxCell id="rDRPrBqrG4_wmn54cMDA-2" value="Czy ArmourId w studentDB jest puste?" style="rhombus;whiteSpace=wrap;html=1;" vertex="1" parent="1">
          <mxGeometry x="298.5" y="150" width="231" height="170" as="geometry" />
        </mxCell>
        <mxCell id="rDRPrBqrG4_wmn54cMDA-9" style="edgeStyle=orthogonalEdgeStyle;rounded=0;orthogonalLoop=1;jettySize=auto;html=1;" edge="1" parent="1" source="rDRPrBqrG4_wmn54cMDA-7" target="rDRPrBqrG4_wmn54cMDA-2">
          <mxGeometry relative="1" as="geometry" />
        </mxCell>
        <mxCell id="rDRPrBqrG4_wmn54cMDA-7" value="Pomijamy to czy studentDB, armourDB, studentArmour jest nullem" style="whiteSpace=wrap;html=1;rounded=0;" vertex="1" parent="1">
          <mxGeometry x="334" y="10" width="160" height="80" as="geometry" />
        </mxCell>
        <mxCell id="rDRPrBqrG4_wmn54cMDA-19" style="edgeStyle=orthogonalEdgeStyle;rounded=0;orthogonalLoop=1;jettySize=auto;html=1;entryX=0.5;entryY=0;entryDx=0;entryDy=0;" edge="1" parent="1" source="rDRPrBqrG4_wmn54cMDA-18" target="rDRPrBqrG4_wmn54cMDA-23">
          <mxGeometry relative="1" as="geometry">
            <mxPoint x="800" y="510" as="targetPoint" />
            <Array as="points">
              <mxPoint x="800" y="575" />
            </Array>
          </mxGeometry>
        </mxCell>
        <mxCell id="rDRPrBqrG4_wmn54cMDA-21" value="TAK" style="edgeLabel;html=1;align=center;verticalAlign=middle;resizable=0;points=[];" vertex="1" connectable="0" parent="rDRPrBqrG4_wmn54cMDA-19">
          <mxGeometry x="-0.2146" y="-1" relative="1" as="geometry">
            <mxPoint as="offset" />
          </mxGeometry>
        </mxCell>
        <mxCell id="rDRPrBqrG4_wmn54cMDA-20" style="edgeStyle=orthogonalEdgeStyle;rounded=0;orthogonalLoop=1;jettySize=auto;html=1;entryX=0.5;entryY=0;entryDx=0;entryDy=0;" edge="1" parent="1" source="rDRPrBqrG4_wmn54cMDA-18" target="rDRPrBqrG4_wmn54cMDA-26">
          <mxGeometry relative="1" as="geometry">
            <mxPoint x="510" y="540" as="targetPoint" />
            <Array as="points">
              <mxPoint x="490" y="575" />
            </Array>
          </mxGeometry>
        </mxCell>
        <mxCell id="rDRPrBqrG4_wmn54cMDA-22" value="NIE" style="edgeLabel;html=1;align=center;verticalAlign=middle;resizable=0;points=[];" vertex="1" connectable="0" parent="rDRPrBqrG4_wmn54cMDA-20">
          <mxGeometry x="-0.0233" y="-3" relative="1" as="geometry">
            <mxPoint x="2" y="-3" as="offset" />
          </mxGeometry>
        </mxCell>
        <mxCell id="rDRPrBqrG4_wmn54cMDA-18" value="Czy armour&#39;a którego chcemy założyć jest więcej niż 1" style="rhombus;whiteSpace=wrap;html=1;" vertex="1" parent="1">
          <mxGeometry x="540" y="490" width="200" height="170" as="geometry" />
        </mxCell>
        <mxCell id="rDRPrBqrG4_wmn54cMDA-23" value="Odejmij 1 od q. Przypisz armour do studenta" style="rounded=0;whiteSpace=wrap;html=1;" vertex="1" parent="1">
          <mxGeometry x="740" y="780" width="120" height="60" as="geometry" />
        </mxCell>
        <mxCell id="rDRPrBqrG4_wmn54cMDA-24" value="KONIEC" style="shape=tape;whiteSpace=wrap;html=1;strokeWidth=2;size=0.19" vertex="1" parent="1">
          <mxGeometry x="440" y="930" width="100" height="65" as="geometry" />
        </mxCell>
        <mxCell id="rDRPrBqrG4_wmn54cMDA-25" style="edgeStyle=orthogonalEdgeStyle;rounded=0;orthogonalLoop=1;jettySize=auto;html=1;entryX=1;entryY=0.5;entryDx=0;entryDy=0;entryPerimeter=0;" edge="1" parent="1" source="rDRPrBqrG4_wmn54cMDA-23" target="rDRPrBqrG4_wmn54cMDA-24">
          <mxGeometry relative="1" as="geometry">
            <Array as="points">
              <mxPoint x="800" y="962" />
            </Array>
          </mxGeometry>
        </mxCell>
        <mxCell id="rDRPrBqrG4_wmn54cMDA-26" value="Usun armour z student_armour. Przypisz armour do studenta" style="rounded=0;whiteSpace=wrap;html=1;" vertex="1" parent="1">
          <mxGeometry x="430" y="700" width="120" height="60" as="geometry" />
        </mxCell>
        <mxCell id="rDRPrBqrG4_wmn54cMDA-27" style="edgeStyle=orthogonalEdgeStyle;rounded=0;orthogonalLoop=1;jettySize=auto;html=1;entryX=0.477;entryY=0.151;entryDx=0;entryDy=0;entryPerimeter=0;" edge="1" parent="1" source="rDRPrBqrG4_wmn54cMDA-26" target="rDRPrBqrG4_wmn54cMDA-24">
          <mxGeometry relative="1" as="geometry">
            <Array as="points">
              <mxPoint x="488" y="710" />
              <mxPoint x="488" y="710" />
            </Array>
          </mxGeometry>
        </mxCell>
        <mxCell id="rDRPrBqrG4_wmn54cMDA-32" style="edgeStyle=orthogonalEdgeStyle;rounded=0;orthogonalLoop=1;jettySize=auto;html=1;entryX=0.5;entryY=0;entryDx=0;entryDy=0;" edge="1" parent="1" source="rDRPrBqrG4_wmn54cMDA-29" target="rDRPrBqrG4_wmn54cMDA-36">
          <mxGeometry relative="1" as="geometry">
            <mxPoint x="350" y="590" as="targetPoint" />
            <Array as="points">
              <mxPoint x="340" y="375" />
            </Array>
          </mxGeometry>
        </mxCell>
        <mxCell id="rDRPrBqrG4_wmn54cMDA-34" value="TAK" style="edgeLabel;html=1;align=center;verticalAlign=middle;resizable=0;points=[];" vertex="1" connectable="0" parent="rDRPrBqrG4_wmn54cMDA-32">
          <mxGeometry x="-0.4134" y="-1" relative="1" as="geometry">
            <mxPoint as="offset" />
          </mxGeometry>
        </mxCell>
        <mxCell id="rDRPrBqrG4_wmn54cMDA-33" style="edgeStyle=orthogonalEdgeStyle;rounded=0;orthogonalLoop=1;jettySize=auto;html=1;" edge="1" parent="1" source="rDRPrBqrG4_wmn54cMDA-29" target="rDRPrBqrG4_wmn54cMDA-37">
          <mxGeometry relative="1" as="geometry">
            <mxPoint x="30" y="560" as="targetPoint" />
            <Array as="points">
              <mxPoint x="60" y="375" />
            </Array>
          </mxGeometry>
        </mxCell>
        <mxCell id="rDRPrBqrG4_wmn54cMDA-35" value="NIE" style="edgeLabel;html=1;align=center;verticalAlign=middle;resizable=0;points=[];" vertex="1" connectable="0" parent="rDRPrBqrG4_wmn54cMDA-33">
          <mxGeometry x="0.0126" relative="1" as="geometry">
            <mxPoint as="offset" />
          </mxGeometry>
        </mxCell>
        <mxCell id="rDRPrBqrG4_wmn54cMDA-29" value="Czy starego armour&#39;a jest więcej niż 1?" style="rhombus;whiteSpace=wrap;html=1;" vertex="1" parent="1">
          <mxGeometry x="120" y="270" width="160" height="210" as="geometry" />
        </mxCell>
        <mxCell id="rDRPrBqrG4_wmn54cMDA-38" style="edgeStyle=orthogonalEdgeStyle;rounded=0;orthogonalLoop=1;jettySize=auto;html=1;" edge="1" parent="1" source="rDRPrBqrG4_wmn54cMDA-36">
          <mxGeometry relative="1" as="geometry">
            <mxPoint x="640" y="470" as="targetPoint" />
            <Array as="points">
              <mxPoint x="520" y="490" />
              <mxPoint x="520" y="470" />
            </Array>
          </mxGeometry>
        </mxCell>
        <mxCell id="rDRPrBqrG4_wmn54cMDA-36" value="Dodaj 1 do q" style="rounded=0;whiteSpace=wrap;html=1;" vertex="1" parent="1">
          <mxGeometry x="280" y="460" width="120" height="60" as="geometry" />
        </mxCell>
        <mxCell id="rDRPrBqrG4_wmn54cMDA-39" style="edgeStyle=orthogonalEdgeStyle;rounded=0;orthogonalLoop=1;jettySize=auto;html=1;exitX=0.461;exitY=0.98;exitDx=0;exitDy=0;exitPerimeter=0;" edge="1" parent="1" source="rDRPrBqrG4_wmn54cMDA-37" target="rDRPrBqrG4_wmn54cMDA-18">
          <mxGeometry relative="1" as="geometry">
            <mxPoint x="530" y="530" as="targetPoint" />
            <mxPoint x="90" y="550" as="sourcePoint" />
            <Array as="points">
              <mxPoint x="65" y="570" />
              <mxPoint x="330" y="570" />
              <mxPoint x="330" y="530" />
            </Array>
          </mxGeometry>
        </mxCell>
        <mxCell id="rDRPrBqrG4_wmn54cMDA-37" value="Stworz nowy row i dodaj do student_armourDB." style="rounded=0;whiteSpace=wrap;html=1;" vertex="1" parent="1">
          <mxGeometry x="10" y="470" width="120" height="60" as="geometry" />
        </mxCell>
      </root>
    </mxGraphModel>
  </diagram>
</mxfile>
